<!-- Generated by IcoMoon.io -->
<svg version="1.1" xmlns="http://www.w3.org/2000/svg" width="32" height="32" viewBox="0 0 32 32">
<title>health</title>
<path d="M31.882 17.829l-0.569-8.305c-0.037-0.538-0.282-1.029-0.689-1.382s-0.928-0.527-1.466-0.487c-1.057 0.077-1.877 0.968-1.866 2.027l0.067 6.771-2.933 3.756c-0.468 0.6-1.245 0.84-1.95 0.66l3.191-4.144c0.56-0.727 0.467-1.781-0.212-2.399-0.362-0.33-0.831-0.493-1.32-0.459s-0.931 0.261-1.244 0.638l-4.821 5.806c-0.795 0.958-1.226 2.17-1.214 3.415l0.075 7.71c0.003 0.307 0.253 0.555 0.56 0.555l8.027 0.011c0 0 0 0 0.001 0 0.157 0 0.307-0.066 0.413-0.181s0.159-0.271 0.146-0.428l-0.328-3.774 5.329-7.082c0.584-0.776 0.869-1.737 0.803-2.706zM30.183 19.861l-5.458 7.254c-0.083 0.11-0.123 0.248-0.111 0.386l0.293 3.378-6.86-0.009-0.070-7.155c-0.010-0.979 0.33-1.934 0.956-2.687l4.821-5.806c0.116-0.139 0.279-0.223 0.459-0.235s0.354 0.047 0.487 0.169c0.251 0.228 0.285 0.617 0.078 0.885l-3.621 4.703c-0.095 0.123-0.134 0.28-0.109 0.434s0.114 0.29 0.243 0.375c1.296 0.86 3.061 0.573 4.018-0.653l3.054-3.911c0.078-0.1 0.12-0.224 0.119-0.351l-0.069-6.967c-0.005-0.469 0.358-0.863 0.826-0.898 0.239-0.017 0.469 0.059 0.649 0.216s0.289 0.374 0.305 0.612l0.57 8.305c0.048 0.7-0.158 1.395-0.58 1.955z"></path>
<path d="M9.108 14.504c-0.313-0.377-0.755-0.604-1.244-0.638s-0.958 0.129-1.32 0.459c-0.679 0.618-0.772 1.672-0.212 2.399l3.191 4.144c-0.704 0.18-1.482-0.060-1.95-0.66l-2.933-3.756 0.067-6.771c0.010-1.060-0.809-1.95-1.866-2.027-0.537-0.039-1.058 0.134-1.466 0.487s-0.652 0.844-0.689 1.382l-0.57 8.305c-0.066 0.969 0.219 1.93 0.803 2.706l5.329 7.082-0.328 3.774c-0.014 0.157 0.039 0.312 0.146 0.428s0.256 0.181 0.413 0.181c0 0 0.001 0 0.001 0l8.027-0.011c0.307-0 0.557-0.248 0.56-0.555l0.075-7.71c0.012-1.244-0.419-2.457-1.214-3.415l-4.821-5.806zM13.952 30.868l-6.86 0.009 0.293-3.378c0.012-0.138-0.027-0.275-0.111-0.386l-5.458-7.254c-0.422-0.561-0.628-1.255-0.58-1.955l0.57-8.305c0.016-0.238 0.125-0.456 0.305-0.612 0.164-0.142 0.368-0.218 0.583-0.218 0.022 0 0.044 0.001 0.066 0.002 0.468 0.034 0.831 0.428 0.826 0.898l-0.069 6.967c-0.001 0.127 0.041 0.251 0.119 0.351l3.054 3.911c0.957 1.226 2.722 1.513 4.018 0.653 0.13-0.086 0.218-0.222 0.243-0.375s-0.014-0.311-0.109-0.434l-3.621-4.703c-0.207-0.268-0.172-0.657 0.078-0.885 0.134-0.122 0.307-0.182 0.487-0.169s0.343 0.096 0.459 0.235l4.821 5.806c0.626 0.754 0.965 1.708 0.956 2.687l-0.069 7.155z"></path>
<path d="M26.986 6.31c0-1.685-0.656-3.27-1.848-4.462s-2.776-1.848-4.462-1.848c-1.686 0-3.27 0.656-4.462 1.848l-0.213 0.213-0.213-0.213c-1.192-1.192-2.776-1.848-4.462-1.848s-3.27 0.656-4.462 1.848c-2.46 2.46-2.46 6.464 0 8.924l8.741 8.741c0.11 0.109 0.253 0.164 0.397 0.164s0.287-0.055 0.397-0.164l8.741-8.741c1.192-1.192 1.848-2.776 1.848-4.462zM16 18.323l-8.344-8.344c-2.023-2.023-2.023-5.315 0-7.338 0.98-0.98 2.283-1.52 3.669-1.52s2.689 0.54 3.669 1.52l0.61 0.61c0.105 0.105 0.248 0.164 0.396 0.164s0.291-0.059 0.397-0.164l0.61-0.61c0.98-0.98 2.283-1.52 3.669-1.52s2.689 0.54 3.669 1.52c0.98 0.98 1.52 2.283 1.52 3.669s-0.54 2.689-1.52 3.669l-8.344 8.344z"></path>
</svg>
